<?xml version="1.0" standalone="no"?>
<!DOCTYPE svg PUBLIC "-//W3C//DTD SVG 20010904//EN"
 "http://www.w3.org/TR/2001/REC-SVG-20010904/DTD/svg10.dtd">
<svg version="1.0" xmlns="http://www.w3.org/2000/svg"
 width="250.000000pt" height="250.000000pt" viewBox="0 0 250.000000 250.000000"
 preserveAspectRatio="xMidYMid meet">
<metadata>
Created by potrace 1.15, written by Peter Selinger 2001-2017
</metadata>
<g transform="translate(0.000000,250.000000) scale(0.100000,-0.100000)"
fill="#000000" stroke="none">
<path d="M0 1250 l0 -1250 1250 0 1250 0 0 1250 0 1250 -1250 0 -1250 0 0
-1250z m1134 453 c10 -118 8 -143 -9 -143 -8 0 -17 12 -20 28 -10 50 -40 96
-75 116 -27 16 -57 22 -137 24 l-103 4 0 -408 c0 -258 4 -423 11 -447 8 -30
18 -42 44 -53 19 -8 46 -14 60 -14 14 0 25 -4 25 -10 0 -6 -77 -10 -210 -10
-133 0 -210 4 -210 10 0 6 11 10 24 10 38 0 86 21 99 44 9 15 13 134 15 450
l3 428 -103 -4 c-125 -5 -161 -20 -189 -81 -10 -23 -19 -52 -19 -64 0 -17 -6
-23 -21 -23 -17 0 -20 4 -15 23 3 12 6 61 6 110 l0 87 409 0 408 0 7 -77z
m496 67 c0 -5 -11 -10 -25 -10 -43 0 -94 -27 -105 -56 -6 -15 -9 -104 -8 -212
l3 -186 143 134 c214 200 259 264 212 302 -12 10 -33 18 -46 18 -13 0 -24 5
-24 10 0 6 68 10 185 10 102 0 185 -4 185 -9 0 -5 -19 -13 -43 -19 -68 -18
-121 -60 -305 -244 l-172 -174 211 -204 c245 -237 302 -283 381 -307 32 -9 58
-20 58 -25 0 -4 -108 -8 -240 -8 -132 0 -240 4 -240 9 0 4 15 12 32 17 42 12
58 52 36 86 -8 13 -97 101 -197 197 l-181 173 0 -190 c0 -105 4 -202 10 -217
11 -28 62 -55 105 -55 14 0 25 -4 25 -10 0 -6 -78 -10 -215 -10 -118 0 -215 4
-215 9 0 4 21 11 47 14 35 4 53 12 70 32 l23 26 0 418 0 418 -23 21 c-13 13
-43 25 -70 28 -103 14 -36 24 168 24 137 0 215 -4 215 -10z"/>
</g>
</svg>
